<?xml version="1.0" encoding="UTF-8" standalone="no"?>
<!-- Created with Inkscape (http://www.inkscape.org/) -->

<svg
   width="128"
   height="128"
   viewBox="0 0 512 512"
   version="1.1"
   id="svg1"
   xml:space="preserve"
   inkscape:version="1.3.2 (091e20ef0f, 2023-11-25, custom)"
   sodipodi:docname="boxflat-icon.svg"
   xmlns:inkscape="http://www.inkscape.org/namespaces/inkscape"
   xmlns:sodipodi="http://sodipodi.sourceforge.net/DTD/sodipodi-0.dtd"
   xmlns="http://www.w3.org/2000/svg"
   xmlns:svg="http://www.w3.org/2000/svg"><sodipodi:namedview
     id="namedview1"
     pagecolor="#505050"
     bordercolor="#ffffff"
     borderopacity="1"
     inkscape:showpageshadow="0"
     inkscape:pageopacity="0"
     inkscape:pagecheckerboard="1"
     inkscape:deskcolor="#505050"
     inkscape:document-units="px"
     inkscape:zoom="5.6568542"
     inkscape:cx="106.59635"
     inkscape:cy="82.819882"
     inkscape:window-width="2560"
     inkscape:window-height="1403"
     inkscape:window-x="0"
     inkscape:window-y="0"
     inkscape:window-maximized="1"
     inkscape:current-layer="layer2" /><defs
     id="defs1"><inkscape:path-effect
       effect="fill_between_many"
       method="originald"
       linkedpaths="#path95,0,1|#path99,0,1|#path106,0,1|#path103,0,1|#path105,0,1|#path100,0,1|#path96,0,1|#path113,0,1|#path115,0,1|#path117,0,1|#path110,0,1"
       id="path-effect122"
       is_visible="true"
       lpeversion="0"
       join="true"
       close="true"
       autoreverse="true" /></defs><g
     inkscape:groupmode="layer"
     id="layer2"
     inkscape:label="Layer 2"
     style="display:inline"><path
       style="display:inline;fill:#bf9562;fill-opacity:1;stroke:#000000;stroke-width:0;stroke-linecap:butt;stroke-linejoin:miter;stroke-dasharray:none;stroke-opacity:1"
       d="m 53.163705,292.86846 1.311106,44.29613 298.773769,41.04478 0.92737,-48.26334 -129.56787,-28.9212 z"
       id="path3"
       sodipodi:nodetypes="cccccc" /><path
       style="fill:#e8c492;fill-opacity:1;stroke:none;stroke-width:0;stroke-linecap:butt;stroke-linejoin:miter;stroke-dasharray:none;stroke-opacity:1"
       d="m 53.166989,292.87099 139.602391,-121.0233 266.49866,35.40726 -42.98011,62.47161 -62.07067,61.30662 z"
       id="path4"
       sodipodi:nodetypes="cccccc" /><path
       style="display:inline;fill:#a6815e;fill-opacity:1;stroke:#000000;stroke-width:0;stroke-linecap:butt;stroke-linejoin:miter;stroke-dasharray:none;stroke-opacity:1;paint-order:normal"
       d="m 353.25301,378.27332 105.06898,-132.56463 0.94214,-38.45407 -105.2544,123.73644 z"
       id="path5"
       sodipodi:nodetypes="ccccc" /></g><g
     inkscape:groupmode="layer"
     id="layer6"
     inkscape:label="Layer 6"><path
       id="path126"
       style="display:inline;fill:#000000;fill-opacity:1;stroke:none;stroke-width:0.3991;stroke-opacity:1"
       d="m 290.41687,206.4045 -1.7354,-0.21414 -1.73422,-0.21482 -2.47251,-0.18911 -2.47206,-0.18805 -1.07699,-0.0336 -1.07744,-0.0337 -2.35216,0.008 -2.3536,0.008 -2.51666,0.15316 -2.51577,0.15322 -2.2601,0.24987 -2.25966,0.24911 -2.10656,0.33354 -2.10577,0.3337 -2.19848,0.43963 -2.19772,0.43978 -1.45318,0.36788 -1.45266,0.36857 -1.65197,0.45736 -1.6519,0.4574 -0.44141,0.1465 -0.44107,0.14578 -1.76058,0.57091 -1.76103,0.57008 -2.49978,0.98049 -2.50098,0.98097 -1.60091,0.73018 -1.6009,0.73018 -1.21535,0.60397 -1.21573,0.60462 -1.66261,0.89391 -1.6635,0.89373 -2.11168,1.30752 -2.11142,1.30687 -1.86446,1.32088 -1.86453,1.32089 -1.12275,0.88412 -1.12234,0.88496 -1.30756,1.13868 -1.30752,1.13868 -0.31736,0.28692 -0.31626,0.28635 -1.10799,1.08186 -1.10711,1.08205 -0.85763,0.91588 -0.85765,0.91585 -1.03543,1.24973 -1.03466,1.24991 -0.31741,0.40233 -0.31808,0.40224 -0.8807,1.21538 -0.87943,1.21486 -1.33485,2.27418 -1.33448,2.27358 -0.66049,1.40839 -0.65911,1.40796 -0.45565,1.1882 -0.45523,1.18901 -0.41452,1.37046 -0.41467,1.37048 -0.25559,1.09462 -0.25498,1.09543 -0.22134,1.59797 -0.22071,1.5988 -0.0683,1.43786 -0.0683,1.4379 0.11501,1.79098 0.11498,1.79103 0.17224,1.0347 0.17228,1.03474 0.40635,1.60458 0.40621,1.60453 0.31508,0.81594 0.31515,0.81588 0.45856,1.1344 0.45889,1.13364 0.81824,1.50331 0.81869,1.5027 0.89923,1.35393 0.89924,1.35397 0.91864,1.12889 0.91824,1.1295 1.08446,1.14908 1.08447,1.14907 0.89986,0.82549 0.89906,0.82534 1.33159,1.06821 1.33166,1.06817 1.24228,0.82976 1.24196,0.83035 1.62333,0.95206 1.62378,0.95144 1.02613,0.51918 1.02656,0.51851 1.22693,0.57593 1.22696,0.57595 2.11157,0.80396 2.11071,0.80381 1.38161,0.4459 1.38249,0.44603 2.18071,0.55103 2.18161,0.55124 1.10985,0.24148 1.11073,0.24155 1.48993,0.26152 1.48988,0.2614 2.0328,0.27081 2.03293,0.2708 2.39949,0.17837 2.40029,0.1784 1.07704,0.0336 1.07696,0.0336 2.35225,-0.008 2.3531,-0.008 1.86418,-0.10902 1.86451,-0.10993 1.57782,-0.13101 1.57702,-0.13106 2.44657,-0.32338 2.44568,-0.32355 2.54917,-0.47558 2.54927,-0.47559 2.15194,-0.51813 2.15192,-0.51817 1.56035,-0.45112 1.56032,-0.45111 1.40807,-0.42119 1.40897,-0.42105 3.42892,-1.30851 3.42889,-1.30851 2.61252,-1.24906 2.6116,-1.24926 0.9178,-0.49744 0.91741,-0.49682 1.08463,-0.57978 1.08371,-0.57995 0.021,-0.0343 0.0212,-0.0348 1.94582,-1.19731 1.94634,-1.19663 2.13875,-1.53744 2.1384,-1.53684 0.76542,-0.60574 0.76459,-0.6059 1.26319,-1.08924 1.26274,-1.09 1.4391,-1.3774 1.43909,-1.37745 1.06092,-1.15481 1.05968,-1.15429 1.14444,-1.4028 1.14447,-1.40288 0.87679,-1.21043 0.87749,-1.21031 1.33537,-2.27339 1.33591,-2.27254 0.66175,-1.41382 0.6627,-1.41365 0.45483,-1.18835 0.45405,-1.18851 0.53344,-1.81224 0.53302,-1.81151 0.20323,-1.12109 0.20364,-1.12176 0.13536,-0.95999 0.13581,-0.96059 0.0836,-2.13139 0.0835,-2.13144 -0.17763,-1.77615 -0.17808,-1.77558 -0.20104,-0.96815 -0.20103,-0.96801 -0.1174,-0.59107 -0.11682,-0.59175 -0.44874,-1.37613 -0.44962,-1.37632 -0.48671,-1.1972 -0.48645,-1.19786 -0.81876,-1.50408 -0.81835,-1.50478 -0.91788,-1.37107 -0.91663,-1.37148 -0.8224,-0.9982 -0.82326,-0.99839 -0.75618,-0.84568 -0.75527,-0.84557 -1.05922,-0.9968 -1.05838,-0.99659 -0.99696,-0.84228 -0.99625,-0.84213 -1.48205,-1.06911 -1.48204,-1.0691 -1.50399,-0.92105 -1.50399,-0.92103 -1.45172,-0.7578 -1.45212,-0.75721 -1.33369,-0.6137 -1.33413,-0.61306 -1.53022,-0.59313 -1.53023,-0.59311 -1.49626,-0.51919 -1.49536,-0.51902 -2.22828,-0.60348 -2.22826,-0.60352 -3.17639,-0.61932 z m -1.9903,7.71743 2.47923,0.56007 2.4784,0.55991 1.63508,0.48456 1.63588,0.48471 1.98963,0.73986 1.98965,0.73988 1.63034,0.77415 1.62988,0.77332 1.23573,0.69599 1.23493,0.69584 1.03133,0.66823 1.03133,0.66829 0.97638,0.71138 0.97683,0.7108 1.3876,1.21372 1.38725,1.21436 1.42162,1.60013 1.42213,1.60088 0.94907,1.38141 0.94959,1.38217 0.70382,1.35636 0.7051,1.35581 0.39386,1.00556 0.39473,1.00572 0.35887,1.11707 0.35999,1.11728 0.29233,1.5052 0.29245,1.50587 0.0847,1.08016 0.0847,1.08015 -0.0175,1.50649 -0.0175,1.50649 -0.10237,0.17492 -0.10278,0.17493 -0.84063,0.36433 -0.84146,0.36418 -0.51805,0.48382 -0.51807,0.48378 -0.1982,0.33768 -0.19803,0.33772 -0.41745,-0.0196 -0.41869,-0.0197 -1.25864,-0.12166 -1.25901,-0.12207 -3.62423,-0.35911 -3.62431,-0.35911 -7.2567,-0.70439 -7.2567,-0.70424 -2.64106,-0.56763 -2.64074,-0.56815 -1.322,-0.5491 -1.32116,-0.54891 -0.88854,-0.48671 -0.88813,-0.48734 -1.75708,-1.27281 -1.75709,-1.27286 -0.80596,-0.42388 -0.80627,-0.42328 -1.32708,-0.45578 -1.32709,-0.45582 -1.66172,-0.25536 -1.66289,-0.25482 -1.26506,-0.0131 -1.26468,-0.0136 -1.13167,0.0954 -1.13201,0.0959 -1.48594,0.26575 -1.48678,0.26563 -1.69446,0.14744 -1.69441,0.14743 -1.45813,-0.008 -1.45855,-0.009 -1.16974,-0.10824 -1.16985,-0.10835 -1.29017,-0.20274 -1.2894,-0.20275 -0.67776,-0.17848 -0.67893,-0.17835 -10.97734,-3.29866 -10.97854,-3.29826 -0.28738,-0.11111 -0.28683,-0.11028 0.23259,-0.39622 0.23261,-0.39618 0.0606,-0.52524 0.0605,-0.52441 -0.27844,-0.5722 -0.27895,-0.57148 0.1012,-0.17296 0.10135,-0.17229 1.31952,-1.03365 1.31899,-1.03302 1.6698,-1.13555 1.67055,-1.13539 1.54376,-0.92908 1.54374,-0.92907 1.62207,-0.85576 1.62208,-0.85576 1.98643,-0.92799 1.98641,-0.92802 2.72857,-1.03661 2.72889,-1.03722 2.41336,-0.71602 2.41328,-0.71598 2.13446,-0.49817 2.1348,-0.49884 1.73212,-0.33192 1.73218,-0.33198 2.40859,-0.32227 2.40951,-0.32207 2.20401,-0.15449 2.20321,-0.15466 2.2798,-0.0162 2.28018,-0.0162 1.07837,0.0296 1.07751,0.0297 2.0903,0.17262 2.0899,0.17316 2.17908,0.28852 z m 25.55829,37.13095 0.43711,0.15887 0.43709,0.15867 0.32342,0.32148 0.32335,0.32154 0.11574,0.33642 0.11566,0.33716 -0.27198,0.5855 -0.27239,0.58468 -0.24373,0.24593 -0.24375,0.24598 -0.67624,0.29427 -0.67713,0.29418 -0.53689,0.0522 -0.53654,0.0531 -0.59805,-0.12366 -0.59794,-0.12226 -0.29081,-0.17225 -0.2907,-0.17207 -0.23397,-0.358 -0.23396,-0.358 -0.0331,-0.32028 -0.0348,-0.31976 0.36098,-0.615 0.36097,-0.61492 0.52546,-0.28965 0.52623,-0.28947 0.60644,-0.14292 0.60675,-0.14341 0.51467,0.0258 z m -82.37874,-15.99751 0.38673,0.23965 0.38761,0.23981 0.19544,0.36678 0.19651,0.36698 0.0151,0.23525 0.0151,0.23536 -0.11577,0.37 -0.1171,0.3705 -0.37867,0.3699 -0.37737,0.36945 -0.55417,0.25072 -0.55451,0.25138 -0.65805,0.0987 -0.65837,0.0994 -0.52706,-0.11288 -0.52703,-0.11287 -0.38426,-0.18042 -0.38472,-0.1797 -0.26176,-0.51291 -0.26175,-0.51289 0.0666,-0.2854 0.0672,-0.28519 0.39184,-0.54878 0.39181,-0.54876 0.61957,-0.30673 0.61951,-0.30677 0.69224,-0.082 0.69313,-0.0817 0.51096,0.0964 z m 71.25721,14.93528 0.48606,0.17601 0.48651,0.17535 0.324,0.24724 0.32522,0.2468 0.24595,0.43542 0.24681,0.43559 -0.0513,0.49799 -0.0493,0.4975 -0.18397,0.31353 -0.18396,0.31353 -0.3997,0.37149 -0.39989,0.37214 -0.74881,0.33334 -0.74924,0.33398 -0.68289,0.0814 -0.68215,0.0814 -0.77261,-0.15028 -0.77265,-0.15031 -0.45752,-0.30292 -0.45665,-0.30281 -0.24665,-0.53338 -0.24714,-0.53271 0.0977,-0.50036 0.0981,-0.50028 0.37363,-0.46727 0.37477,-0.46775 0.59633,-0.36652 0.59673,-0.36719 0.74116,-0.17039 0.73989,-0.17002 0.67661,0.0352 z m -63.12687,-12.13502 1.21515,0.23631 1.21588,0.23644 0.427,0.42176 0.42665,0.42239 0.0853,0.49001 0.087,0.4909 -0.16222,0.45317 -0.16074,0.45394 -0.49966,0.51428 -0.49932,0.51366 -0.9526,0.36317 -0.95267,0.36312 -0.61076,0.005 -0.61034,0.005 -0.56021,-0.11346 -0.55939,-0.11352 -0.45883,-0.24862 -0.45849,-0.24936 -0.24564,-0.3758 -0.24521,-0.3765 -0.053,-0.47435 -0.0513,-0.47485 0.36129,-0.62905 0.36305,-0.62874 0.64631,-0.43548 0.64724,-0.43526 0.80243,-0.20815 z m 32.37342,6.79792 0.95719,0.36973 0.95758,0.36906 0.82004,0.58392 0.81909,0.58379 0.53027,0.87898 0.53027,0.87905 0.0624,0.87342 0.0625,0.87408 -0.2596,0.87844 -0.25825,0.87797 -0.67015,0.85667 -0.67089,0.85655 -0.63856,0.52626 -0.63843,0.52627 -0.74789,0.42279 -0.74871,0.42261 -1.1447,0.42501 -1.14427,0.42432 -1.00573,0.16204 -1.00541,0.16167 -0.8665,0.0173 -0.86703,0.0173 -1.15719,-0.17043 -1.1577,-0.17009 -0.82363,-0.33027 -0.82368,-0.3303 -0.81959,-0.58455 -0.81885,-0.58437 -0.53022,-0.87905 -0.53025,-0.879 -0.0607,-0.87325 -0.0606,-0.87394 0.2376,-0.82463 0.23658,-0.82477 0.52798,-0.73199 0.52808,-0.73197 0.54339,-0.51074 0.5443,-0.5106 0.80127,-0.53003 0.80072,-0.53087 1.23605,-0.47799 1.23638,-0.47874 1.1198,-0.19526 1.11973,-0.19527 0.84088,-0.0164 0.84087,-0.0164 1.04838,0.13041 z m -18.86281,-3.06531 0.56374,0.38243 0.56413,0.38185 0.30104,0.61687 0.30043,0.61607 -0.11211,0.61735 -0.11175,0.61665 -0.43263,0.56282 -0.43341,0.56261 -0.7009,0.44539 -0.7022,0.44585 -0.90129,0.25124 -0.90092,0.25063 -0.66725,-0.003 -0.66688,-0.006 -0.6031,-0.12193 -0.60218,-0.12143 -0.42938,-0.23375 -0.42938,-0.23374 -0.36236,-0.32343 -0.3616,-0.32325 -0.1608,-0.43589 -0.15978,-0.43569 0.005,-0.43398 0.005,-0.43402 0.42277,-0.73048 0.42101,-0.73084 0.67108,-0.4498 0.67097,-0.4498 0.6647,-0.24199 0.66428,-0.24134 0.75713,-0.0886 0.7563,-0.0889 0.98439,0.19002 z m 35.79691,7.01889 1.26396,0.24575 1.26481,0.24597 0.48531,0.41188 0.48577,0.41121 0.18919,0.4165 0.18857,0.41571 0.005,0.51832 0.005,0.5177 -0.38849,0.6925 -0.38851,0.69249 -0.78549,0.53243 -0.78496,0.5332 -0.9011,0.24772 -0.90153,0.24837 -0.59852,0.0154 -0.59862,0.0154 -0.75175,-0.15525 -0.75159,-0.15492 -0.48875,-0.26441 -0.48872,-0.26443 -0.36816,-0.48617 -0.36786,-0.48671 -0.0591,-0.60808 -0.0593,-0.60735 0.46413,-0.78054 0.46415,-0.78055 0.45847,-0.34162 0.45971,-0.34211 0.65915,-0.28628 0.6595,-0.28692 0.81405,-0.15639 z m 26.52639,8.36025 0.0879,0.0794 0.088,0.0785 -0.008,0.37613 -0.008,0.37617 0.23464,0.48426 0.23463,0.4842 0.56275,0.45739 0.56277,0.45736 -0.4132,0.70401 -0.41357,0.70464 -0.92904,1.31577 -0.92943,1.31639 -1.21255,1.5058 -1.21127,1.50532 -1.72067,1.74002 -1.72069,1.73996 -1.28305,1.10026 -1.28351,1.10085 -1.26179,0.96478 -1.26099,0.96498 -1.28066,0.87963 -1.27978,0.87979 -1.2736,0.77969 -1.27311,0.78049 -1.78458,0.98783 -1.78464,0.98776 -1.43874,0.69163 -1.43922,0.69077 -2.03129,0.87248 -2.0321,0.87239 -1.98615,0.69633 -1.98661,0.69558 -2.13717,0.63298 -2.13801,0.63281 -2.03156,0.46932 -2.03068,0.46942 -1.5635,0.30026 -1.56309,0.30111 -1.88474,0.27462 -1.88482,0.27464 -1.84334,0.17144 -1.84249,0.1716 -1.13093,0.0605 -1.13097,0.0605 -1.8924,0.0235 -1.89238,0.0234 -1.79067,-0.0482 -1.79028,-0.0482 -0.26584,-0.0516 -0.26495,-0.0516 -0.0543,-0.24294 -0.0521,-0.24198 -0.40228,-0.42972 -0.40135,-0.4295 -0.6525,-0.30618 -0.65248,-0.30617 0.0596,-0.10188 0.0594,-0.10118 2.90135,-4.27723 2.90136,-4.27729 1.77047,-2.61597 1.77058,-2.61597 1.30861,-1.95122 1.30954,-1.95103 1.00128,-1.1834 1.00046,-1.18359 1.14554,-1.01076 1.14682,-1.01127 1.42718,-0.9992 1.42733,-0.99923 1.43718,-0.75564 1.43681,-0.75503 1.49624,-0.65277 1.49542,-0.65293 1.51035,-0.46863 1.51045,-0.4686 1.26204,-0.29447 1.26115,-0.29463 1.63941,-0.24724 1.63942,-0.24728 1.21848,-0.0754 1.2189,-0.0762 7.15391,0.0786 7.1552,0.0787 6.05115,0.0664 z m -92.13391,-17.87069 0.27379,0.0787 0.2738,0.0787 10.08747,4.24018 10.08863,4.23969 1.08347,0.55509 1.08297,0.5543 1.13757,0.7867 1.13849,0.78689 0.86464,0.86754 0.86556,0.8677 0.65474,0.85577 0.65474,0.85574 0.61235,1.34138 0.61323,1.34158 0.23433,1.09 0.23516,1.09082 0.0493,1.05383 0.0475,1.05445 -0.21805,1.30881 -0.2183,1.30952 -0.44963,1.17305 -0.4506,1.17288 -1.88282,3.75477 -1.88293,3.75477 -0.89931,1.79912 -0.89817,1.79863 -1.73914,3.48869 -1.7382,3.48884 -0.0456,0.0775 -0.0452,0.0776 -0.66642,5.7e-4 -0.66569,6.3e-4 -0.70397,0.13321 -0.70513,0.13357 -0.60137,0.24157 -0.60135,0.24154 -0.21555,-0.0491 -0.2165,-0.048 -1.40612,-0.5392 -1.40527,-0.53904 -1.57711,-0.72984 -1.57749,-0.72912 -1.61396,-0.90133 -1.61308,-0.90116 -2.09389,-1.49988 -2.09382,-1.49987 -1.10531,-1.0029 -1.1048,-1.00214 -1.26619,-1.40762 -1.26653,-1.407 -1.0656,-1.51811 -1.06654,-1.51826 -0.84026,-1.65782 -0.83982,-1.657 -0.57241,-1.62061 -0.57185,-1.62047 -0.2731,-1.25348 -0.27325,-1.25342 -0.17218,-1.78221 -0.17125,-1.78202 0.0642,-1.54991 0.0643,-1.55049 0.17877,-1.28104 0.17816,-1.28186 0.31452,-1.29926 0.31454,-1.29928 0.61166,-1.72877 0.61168,-1.72874 0.74464,-1.5387 0.74371,-1.5389 0.40514,-0.69354 0.40592,-0.69334 0.92034,-0.16816 0.92037,-0.16817 0.55491,-0.22439 0.55584,-0.22419 0.61261,-0.40236 z m 37.77961,22.47068 0.72013,0.2139 0.72015,0.21387 0.52813,0.38618 0.52774,0.3868 0.24589,0.53031 0.24575,0.53033 -0.0599,0.51756 -0.06,0.51824 -0.31426,0.53547 -0.31467,0.53609 -0.49753,0.43253 -0.49789,0.43315 -0.73579,0.32736 -0.7353,0.32818 -0.88931,0.12179 -0.88898,0.12108 -0.80633,-0.0933 -0.8064,-0.0932 -0.61354,-0.33335 -0.61361,-0.33331 -0.33945,-0.38697 -0.34062,-0.38656 -0.10678,-0.44664 -0.10723,-0.44737 0.0654,-0.43856 0.0659,-0.43929 0.48245,-0.69335 0.48376,-0.69383 0.64397,-0.39556 0.64432,-0.39615 0.81561,-0.26151 0.81603,-0.26221 0.86155,-0.0154 z m -6.14096,9.51332 0.82254,0.16301 0.82329,0.16146 0.44817,0.30258 0.44905,0.30273 0.24334,0.4399 0.24454,0.4394 -0.0493,0.4975 -0.0513,0.49736 -0.19883,0.33896 -0.19844,0.33836 -0.48336,0.41329 -0.48424,0.41315 -0.6575,0.26393 -0.65698,0.26475 -0.676,0.0838 -0.67518,0.0841 -0.77263,-0.15028 -0.77268,-0.15047 -0.45752,-0.30299 -0.45667,-0.30278 -0.24436,-0.52653 -0.24397,-0.52716 0.074,-0.43483 0.0743,-0.43551 0.17685,-0.30143 0.17645,-0.30081 0.34557,-0.32815 0.34557,-0.32815 0.58673,-0.31601 0.5864,-0.31529 0.84215,-0.14245 z m -3.58659,8.58949 0.42568,0.2628 0.4257,0.26279 0.19665,0.29332 0.19696,0.29409 0.0352,0.33614 0.035,0.33609 -0.32543,0.55455 -0.32586,0.5552 -0.38191,0.25516 -0.38195,0.25518 -0.56303,0.20228 -0.56389,0.20208 -0.46027,0.0328 -0.46036,0.0328 -0.58518,-0.11993 -0.58434,-0.1196 -0.29081,-0.17226 -0.28978,-0.17169 -0.23502,-0.35818 -0.23398,-0.35799 -0.0331,-0.32027 -0.0348,-0.31974 0.30494,-0.5196 0.3049,-0.51955 0.32231,-0.26399 0.32132,-0.26413 0.45254,-0.18822 0.45297,-0.18891 0.67438,-0.0827 0.67519,-0.0827 0.46202,0.0866 z" /></g></svg>
