<?xml version="1.0" encoding="iso-8859-1"?>
<!-- Uploaded to: SVG Repo, www.svgrepo.com, Generator: SVG Repo Mixer Tools -->
<!DOCTYPE svg PUBLIC "-//W3C//DTD SVG 1.1//EN" "http://www.w3.org/Graphics/SVG/1.1/DTD/svg11.dtd">
<svg fill="#000000" height="800px" width="800px" version="1.1" id="Capa_1" xmlns="http://www.w3.org/2000/svg" xmlns:xlink="http://www.w3.org/1999/xlink" 
	 viewBox="0 0 191.851 191.851" xml:space="preserve">
<g>
	<path d="M188.103,147.322c-3.583-2.072-8.173-0.849-10.247,2.739c-4.734,8.189-13.54,13.275-22.979,13.275
		c-9.442,0-18.249-5.087-22.983-13.275c-1.341-2.318-3.816-3.746-6.494-3.746c-2.678,0-5.153,1.429-6.493,3.748
		c-4.73,8.188-13.535,13.273-22.976,13.273c-9.439,0-18.246-5.088-22.985-13.277c-1.341-2.317-3.818-3.744-6.495-3.744
		c-2.678,0-5.152,1.428-6.493,3.746c-4.735,8.189-13.54,13.275-22.98,13.275c-9.442,0-18.249-5.087-22.984-13.275
		c-2.073-3.587-6.662-4.809-10.247-2.739c-3.586,2.074-4.812,6.661-2.738,10.247c7.407,12.809,21.189,20.768,35.969,20.768
		c11.168,0,21.767-4.545,29.476-12.295c7.711,7.75,18.31,12.295,29.477,12.295c11.168,0,21.765-4.543,29.471-12.291
		c7.709,7.747,18.308,12.291,29.476,12.291c14.777,0,28.559-7.958,35.966-20.768C192.916,153.983,191.689,149.396,188.103,147.322z"
		/>
	<path d="M131.893,115.35c-2.073-3.588-6.664-4.813-10.247-2.739c-3.586,2.073-4.813,6.661-2.739,10.247
		c7.406,12.81,21.19,20.768,35.97,20.768c14.778,0,28.559-7.958,35.966-20.768c2.073-3.586,0.847-8.174-2.739-10.247
		c-3.586-2.073-8.174-0.847-10.247,2.739c-4.734,8.188-13.539,13.275-22.979,13.275C145.434,128.626,136.628,123.539,131.893,115.35
		z"/>
	<path d="M36.979,143.626c14.777,0,28.559-7.957,35.967-20.767c2.074-3.586,0.848-8.174-2.737-10.247
		c-3.585-2.072-8.174-0.849-10.247,2.737c-4.736,8.189-13.543,13.276-22.982,13.276c-9.442,0-18.249-5.087-22.984-13.275
		c-2.074-3.587-6.661-4.813-10.247-2.739c-3.586,2.073-4.812,6.661-2.739,10.247C8.416,135.668,22.198,143.626,36.979,143.626z"/>
	<path d="M96.098,155.021c10.988,0,19.894-8.907,19.894-19.896c0-8.332-5.127-15.458-12.395-18.421v-15.58h25.475
		c4.143,0,7.5-3.357,7.5-7.5c0-4.143-3.357-7.5-7.5-7.5h-25.475V73.357h25.475c4.143,0,7.5-3.357,7.5-7.5c0-4.143-3.357-7.5-7.5-7.5
		h-25.475V45.588h25.475c4.143,0,7.5-3.357,7.5-7.5s-3.357-7.5-7.5-7.5h-25.475v-9.574c0-4.143-3.357-7.5-7.499-7.5
		s-7.5,3.357-7.5,7.5v95.69c-7.269,2.963-12.396,10.089-12.396,18.421C76.201,146.114,85.11,155.021,96.098,155.021z"/>
</g>
</svg>