<svg width="101" height="101" viewBox="0 0 101 101" fill="none" xmlns="http://www.w3.org/2000/svg">
<path d="M95.665 40.723H88.59C87.762 40.723 87.09 41.394 87.09 42.223V52.745H80.749L71.304 41.294C71.019 40.949 70.595 40.749 70.147 40.749H55.045V32.862C55.045 32.033 54.373 31.362 53.545 31.362H39.851V25.999H53.641C54.469 25.999 55.141 25.328 55.141 24.499C55.141 23.67 54.469 22.999 53.641 22.999H23.061C22.232 22.999 21.561 23.67 21.561 24.499C21.561 25.328 22.232 25.999 23.061 25.999H36.851V31.362H23.061C22.232 31.362 21.561 32.033 21.561 32.862V40.749H13.674C12.845 40.749 12.174 41.42 12.174 42.249V53.246H5.805V44.289C5.805 43.46 5.134 42.789 4.305 42.789C3.476 42.789 2.805 43.46 2.805 44.289V65.203C2.805 66.031 3.476 66.703 4.305 66.703C5.134 66.703 5.805 66.031 5.805 65.203V56.246H12.174V68.816C12.174 69.644 12.845 70.316 13.674 70.316H22.495L27.743 77.394C28.026 77.775 28.473 78 28.948 78H80.042C80.87 78 81.542 77.328 81.542 76.5V62.63H87.09V72.993C87.09 73.821 87.762 74.493 88.59 74.493H95.665C96.493 74.493 97.165 73.821 97.165 72.993V42.223C97.165 41.395 96.493 40.723 95.665 40.723ZM80.042 59.63C79.214 59.63 78.542 60.302 78.542 61.13V75H29.703L24.455 67.922C24.172 67.54 23.725 67.316 23.25 67.316H15.174V43.749H23.061C23.89 43.749 24.561 43.078 24.561 42.249V34.362H52.045V42.249C52.045 43.078 52.717 43.749 53.545 43.749H69.44L78.885 55.2C79.17 55.546 79.594 55.746 80.042 55.746H87.09V59.631H80.042V59.63ZM94.165 71.493H90.09V43.723H94.165V71.493Z" fill="black" stroke="black" stroke-width="2.2"></path>
</svg>