<?xml version="1.0" encoding="iso-8859-1"?>
<!-- Uploaded to: SVG Repo, www.svgrepo.com, Generator: SVG Repo Mixer Tools -->
<!DOCTYPE svg PUBLIC "-//W3C//DTD SVG 1.1//EN" "http://www.w3.org/Graphics/SVG/1.1/DTD/svg11.dtd">
<svg fill="#ffb300" height="800px" width="800px" version="1.1" id="Capa_1" xmlns="http://www.w3.org/2000/svg" xmlns:xlink="http://www.w3.org/1999/xlink" 
	 viewBox="0 0 212.715 212.715" xml:space="preserve">
<g>
	<path d="M211.436,187.771L112.843,17.002c-1.34-2.32-3.815-3.75-6.495-3.75c-2.68,0-5.155,1.43-6.495,3.75L1.005,188.213
		c-1.34,2.32-1.34,5.18,0,7.5c1.34,2.32,3.816,3.75,6.495,3.75h197.695c0.007,0,0.015,0,0.02,0c4.143,0,7.5-3.357,7.5-7.5
		C212.715,190.41,212.243,188.968,211.436,187.771z M20.49,184.463l85.857-148.711l85.857,148.711H20.49z"/>
	<path d="M99.853,67.055L44.251,163.36c-1.34,2.32-1.34,5.18,0,7.5c1.34,2.32,3.815,3.75,6.495,3.75h111.203
		c0.008,0.001,0.015,0.001,0.02,0c4.143,0,7.5-3.357,7.5-7.5c0-1.553-0.472-2.995-1.279-4.192l-55.347-95.863
		c-1.34-2.32-3.815-3.75-6.495-3.75C103.668,63.305,101.192,64.734,99.853,67.055z M148.959,159.61H63.736l42.611-73.806
		L148.959,159.61z"/>
</g>
</svg>