<?xml version="1.0" encoding="iso-8859-1"?>
<!-- Uploaded to: SVG Repo, www.svgrepo.com, Generator: SVG Repo Mixer Tools -->
<!DOCTYPE svg PUBLIC "-//W3C//DTD SVG 1.1//EN" "http://www.w3.org/Graphics/SVG/1.1/DTD/svg11.dtd">
<svg fill="#1e90ff" height="800px" width="800px" version="1.1" id="Capa_1" xmlns="http://www.w3.org/2000/svg" xmlns:xlink="http://www.w3.org/1999/xlink" 
	 viewBox="0 0 211.398 211.398" xml:space="preserve">
<g>
	<path d="M182.325,56.618c-16.482-12.067-37.006-19.272-54.901-19.272c-18.011,0-31.322,7.262-39.563,21.583
		c-6.457,11.221-9.597,26.52-9.597,46.771c0,20.25,3.139,35.549,9.597,46.771c8.242,14.321,21.553,21.583,39.563,21.583
		c17.895,0,38.419-7.205,54.901-19.272c18.748-13.727,29.073-31.158,29.073-49.081C211.398,87.775,201.073,70.345,182.325,56.618z
		 M173.464,142.677c-13.795,10.101-31.437,16.375-46.04,16.375c-15.904,0-34.16-6.064-34.16-53.353s18.256-53.354,34.16-53.354
		c14.604,0,32.245,6.274,46.04,16.375c14.575,10.671,22.935,24.149,22.935,36.979C196.398,118.528,188.039,132.006,173.464,142.677z
		"/>
	<path d="M64.055,44.945L7.5,44.944c-4.142,0-7.5,3.358-7.5,7.5s3.358,7.5,7.5,7.5l56.555,0.001c4.142,0,7.5-3.358,7.5-7.5
		S68.197,44.945,64.055,44.945z"/>
	<path d="M64.055,72.299H7.5c-4.142,0-7.5,3.358-7.5,7.5c0,4.142,3.358,7.5,7.5,7.5h56.555c4.142,0,7.5-3.358,7.5-7.5
		C71.555,75.657,68.197,72.299,64.055,72.299z"/>
	<path d="M64.055,99.653H7.5c-4.142,0-7.5,3.358-7.5,7.5c0,4.142,3.358,7.5,7.5,7.5h56.555c4.142,0,7.5-3.358,7.5-7.5
		C71.555,103.011,68.197,99.653,64.055,99.653z"/>
	<path d="M64.055,127.008H7.5c-4.142,0-7.5,3.358-7.5,7.5s3.358,7.5,7.5,7.5h56.555c4.142,0,7.5-3.358,7.5-7.5
		S68.197,127.008,64.055,127.008z"/>
	<path d="M64.055,154.362H7.5c-4.142,0-7.5,3.358-7.5,7.5c0,4.142,3.358,7.5,7.5,7.5h56.555c4.142,0,7.5-3.358,7.5-7.5
		C71.555,157.72,68.197,154.362,64.055,154.362z"/>
</g>
</svg>