<?xml version="1.0" encoding="iso-8859-1"?>
<!-- Uploaded to: SVG Repo, www.svgrepo.com, Generator: SVG Repo Mixer Tools -->
<!DOCTYPE svg PUBLIC "-//W3C//DTD SVG 1.1//EN" "http://www.w3.org/Graphics/SVG/1.1/DTD/svg11.dtd">
<svg fill="#00cc66" height="800px" width="800px" version="1.1" id="Capa_1" xmlns="http://www.w3.org/2000/svg" xmlns:xlink="http://www.w3.org/1999/xlink" 
	 viewBox="0 0 211.399 211.399" xml:space="preserve">
<g>
	<path d="M182.327,44.824c-16.482-12.068-37.005-19.272-54.9-19.272c-18.011,0-31.322,7.262-39.563,21.583
		c-6.457,11.221-9.597,26.52-9.597,46.771c0,20.25,3.139,35.549,9.597,46.771c8.242,14.321,21.553,21.583,39.563,21.583
		c17.895,0,38.418-7.205,54.9-19.273c18.748-13.727,29.072-31.158,29.072-49.081C211.399,75.981,201.074,58.55,182.327,44.824z
		 M173.465,130.883c-13.795,10.101-31.437,16.376-46.039,16.376c-15.904,0-34.16-6.064-34.16-53.354
		c0-47.289,18.256-53.354,34.16-53.354c14.603,0,32.244,6.275,46.039,16.375c14.575,10.671,22.934,24.149,22.934,36.979
		C196.399,106.734,188.04,120.212,173.465,130.883z"/>
	<path d="M60.703,33.943L4.148,62.22c-3.705,1.852-5.207,6.357-3.354,10.062c1.314,2.628,3.962,4.147,6.714,4.147
		c1.127,0,2.271-0.255,3.348-0.794l56.556-28.277c3.705-1.852,5.207-6.358,3.354-10.062C68.913,33.591,64.408,32.088,60.703,33.943z
		"/>
	<path d="M60.703,61.297L4.148,89.575c-3.705,1.852-5.207,6.357-3.354,10.062c1.314,2.628,3.962,4.147,6.714,4.147
		c1.127,0,2.271-0.255,3.348-0.793l56.556-28.278c3.705-1.852,5.207-6.357,3.354-10.062C68.913,60.945,64.408,59.443,60.703,61.297z
		"/>
	<path d="M60.703,88.651L4.148,116.928c-3.705,1.852-5.207,6.357-3.354,10.062c1.314,2.628,3.962,4.147,6.714,4.147
		c1.127,0,2.271-0.255,3.348-0.793l56.556-28.277c3.705-1.852,5.207-6.357,3.354-10.062C68.913,88.299,64.408,86.798,60.703,88.651z
		"/>
	<path d="M60.703,116.005L4.148,144.284c-3.705,1.852-5.207,6.357-3.354,10.062c1.314,2.628,3.962,4.147,6.714,4.147
		c1.127,0,2.271-0.255,3.348-0.793l56.556-28.278c3.705-1.852,5.207-6.357,3.354-10.062
		C68.913,115.654,64.408,114.152,60.703,116.005z"/>
	<path d="M60.703,143.36L4.148,171.638c-3.705,1.852-5.207,6.357-3.354,10.062c1.314,2.628,3.962,4.147,6.714,4.147
		c1.127,0,2.271-0.255,3.348-0.793l56.556-28.278c3.705-1.852,5.207-6.357,3.354-10.062
		C68.913,143.009,64.408,141.506,60.703,143.36z"/>
</g>
</svg>