<?xml version="1.0" encoding="UTF-8" standalone="no"?>
<!-- Created with Inkscape (http://www.inkscape.org/) -->

<svg
   width="512"
   height="512"
   viewBox="0 0 512 512"
   version="1.1"
   id="svg1"
   xml:space="preserve"
   inkscape:version="1.3.2 (091e20ef0f, 2023-11-25, custom)"
   sodipodi:docname="io.github.lawstorant.boxflat.svg"
   inkscape:export-filename="../icons/512x512/apps/io.github.lawstorant.boxflat.png"
   inkscape:export-xdpi="96"
   inkscape:export-ydpi="96"
   xmlns:inkscape="http://www.inkscape.org/namespaces/inkscape"
   xmlns:sodipodi="http://sodipodi.sourceforge.net/DTD/sodipodi-0.dtd"
   xmlns="http://www.w3.org/2000/svg"
   xmlns:svg="http://www.w3.org/2000/svg"><sodipodi:namedview
     id="namedview1"
     pagecolor="#505050"
     bordercolor="#ffffff"
     borderopacity="1"
     inkscape:showpageshadow="0"
     inkscape:pageopacity="0"
     inkscape:pagecheckerboard="1"
     inkscape:deskcolor="#505050"
     inkscape:document-units="px"
     inkscape:zoom="2"
     inkscape:cx="318"
     inkscape:cy="244.75"
     inkscape:window-width="2560"
     inkscape:window-height="1403"
     inkscape:window-x="0"
     inkscape:window-y="0"
     inkscape:window-maximized="1"
     inkscape:current-layer="layer8" /><defs
     id="defs1"><inkscape:path-effect
       effect="fill_between_many"
       method="originald"
       linkedpaths="#path9,0,1|"
       id="path-effect118" /><inkscape:path-effect
       effect="fill_between_many"
       method="originald"
       linkedpaths="#path93,0,1|"
       id="path-effect120" /><inkscape:path-effect
       effect="fill_between_many"
       method="originald"
       linkedpaths="#path109,0,1|"
       id="path-effect121" /><inkscape:path-effect
       effect="fill_between_many"
       method="originald"
       linkedpaths="#path95,0,1|#path99,0,1|#path106,0,1|#path103,0,1|#path105,0,1|#path100,0,1|#path96,0,1|#path113,0,1|#path115,0,1|#path117,0,1|#path110,0,1|"
       id="path-effect122" /><filter
       style="color-interpolation-filters:sRGB;"
       inkscape:label="Drop Shadow"
       id="filter82"
       x="-0.010497076"
       y="-0.010491903"
       width="1.0273118"
       height="1.0272984"><feFlood
         result="flood"
         in="SourceGraphic"
         flood-opacity="0.498039"
         flood-color="rgb(0,0,0)"
         id="feFlood81" /><feGaussianBlur
         result="blur"
         in="SourceGraphic"
         stdDeviation="0.900000"
         id="feGaussianBlur81" /><feOffset
         result="offset"
         in="blur"
         dx="1.300000"
         dy="1.300000"
         id="feOffset81" /><feComposite
         result="comp1"
         operator="in"
         in="flood"
         in2="offset"
         id="feComposite81" /><feComposite
         result="comp2"
         operator="over"
         in="SourceGraphic"
         in2="comp1"
         id="feComposite82" /></filter><filter
       style="color-interpolation-filters:sRGB;"
       inkscape:label="Drop Shadow"
       id="filter84"
       x="-0.010497052"
       y="-0.01049181"
       width="1.0273118"
       height="1.0272981"><feFlood
         result="flood"
         in="SourceGraphic"
         flood-opacity="0.498039"
         flood-color="rgb(0,0,0)"
         id="feFlood82" /><feGaussianBlur
         result="blur"
         in="SourceGraphic"
         stdDeviation="0.900000"
         id="feGaussianBlur82" /><feOffset
         result="offset"
         in="blur"
         dx="1.300000"
         dy="1.300000"
         id="feOffset82" /><feComposite
         result="comp1"
         operator="in"
         in="flood"
         in2="offset"
         id="feComposite83" /><feComposite
         result="comp2"
         operator="over"
         in="SourceGraphic"
         in2="comp1"
         id="feComposite84" /></filter><filter
       style="color-interpolation-filters:sRGB;"
       inkscape:label="Drop Shadow"
       id="filter21"
       x="-0.0058901376"
       y="-0.0058872074"
       width="1.0117803"
       height="1.0192158"><feFlood
         result="flood"
         in="SourceGraphic"
         flood-opacity="0.498039"
         flood-color="rgb(0,0,0)"
         id="feFlood20" /><feGaussianBlur
         result="blur"
         in="SourceGraphic"
         stdDeviation="0.65929006"
         id="feGaussianBlur20" /><feOffset
         result="offset"
         in="blur"
         dx="-0.000000"
         dy="2.000000"
         id="feOffset20" /><feComposite
         result="comp1"
         operator="in"
         in="flood"
         in2="offset"
         id="feComposite20" /><feComposite
         result="comp2"
         operator="over"
         in="SourceGraphic"
         in2="comp1"
         id="feComposite21" /></filter></defs><g
     inkscape:groupmode="layer"
     id="layer8"
     inkscape:label="Layer 8"
     style="display:inline"><rect
       style="display:inline;fill:#ab906c;fill-opacity:1;stroke:none;stroke-width:2.76928;stroke-linecap:round;stroke-linejoin:round;stroke-miterlimit:1;stroke-dasharray:none;stroke-opacity:1;paint-order:normal"
       id="rect1-2"
       width="415.9364"
       height="369.74731"
       x="48.031799"
       y="94.109375"
       ry="33.880859" /><rect
       style="display:inline;fill:#e8c492;fill-opacity:1;stroke:none;stroke-width:2.76928;stroke-linecap:round;stroke-linejoin:round;stroke-miterlimit:1;stroke-dasharray:none;stroke-opacity:1;paint-order:normal"
       id="rect1"
       width="415.9364"
       height="369.74731"
       x="48.031799"
       y="48.06002"
       ry="33.880859" /><path
       id="path123-0"
       style="display:inline;fill:#8f8f8f;fill-opacity:1;stroke:none;stroke-width:1.0016;stroke-opacity:1;filter:url(#filter21);opacity:1"
       d="m 248.39349,98.549403 -3.81079,0.3404 -3.80884,0.338437 -5.28973,0.80596 -5.28777,0.80795 -2.24383,0.48906 -2.24382,0.49101 -4.80653,1.28527 -4.80849,1.28722 -4.96891,1.77433 -4.96695,1.77433 -4.32725,1.90344 -4.32725,1.90148 -3.91251,2.05213 -3.91057,2.0521 -3.97315,2.39448 -3.97123,2.39445 -2.53336,1.79585 -2.5314,1.79782 -2.83265,2.14992 -2.83268,2.14992 -0.72771,0.64166 -0.72774,0.6397 -2.91875,2.52163 -2.92069,2.51965 -3.93992,4.04945 -3.94185,4.05142 -2.40034,2.87571 -2.40033,2.8757 -1.76259,2.32013 -1.76258,2.32209 -2.32991,3.36085 -2.33187,3.36085 -2.75244,4.74393 -2.75247,4.74197 -2.23013,4.64807 -2.23014,4.64809 -1.23636,3.04395 -1.2344,3.04589 -1.30874,3.84601 -1.30873,3.846 -0.30519,0.96249 -0.30321,0.96053 -0.96836,3.5819 -0.96639,3.58191 -0.65534,2.98917 -0.65535,2.98918 -0.61819,4.00641 -0.61621,4.00643 -0.16629,1.28135 -0.16824,1.28135 -0.34235,3.82839 -0.34039,3.82645 v 6.99559 6.99364 l 0.34039,4.24312 0.34235,4.24117 0.49494,3.52518 0.4969,3.52714 0.79814,4.00643 0.79816,4.00643 0.79228,3.15934 0.79423,3.16133 1.46721,4.53069 1.46914,4.53267 1.58849,4.00642 1.58849,4.00642 2.3886,4.88282 2.38859,4.88283 1.59631,2.7642 1.59631,2.76419 2.76029,4.21184 2.76028,4.21183 1.62564,2.08342 1.62565,2.08341 2.30252,2.88548 2.30253,2.88353 3.48214,3.71103 3.48213,3.70907 3.46846,3.25521 3.46845,3.25522 3.23761,2.62335 3.23762,2.6253 3.60147,2.5901 3.60147,2.59009 2.83463,1.79583 2.83266,1.79586 4.01034,2.23404 4.01033,2.23406 3.54083,1.62368 3.54083,1.62566 4.4681,1.75672 4.46811,1.75478 2.72506,0.88228 2.72508,0.8803 3.20435,0.93119 3.20435,0.93117 5.28973,1.08572 5.28778,1.08573 3.36476,0.48907 3.36673,0.48906 5.12735,0.35017 5.12931,0.35017 2.56272,0.0703 2.56465,0.0704 3.36477,-0.0782 3.36476,-0.0782 4.48767,-0.3443 4.48766,-0.34431 5.12736,-0.7962 5.12932,-0.79619 2.24382,-0.48906 2.24383,-0.48907 4.80654,-1.28525 4.80849,-1.28527 3.6856,-1.30287 3.68559,-1.30483 3.07329,-1.20898 3.07132,-1.20896 4.6207,-2.20666 4.61872,-2.20666 4.64808,-2.68203 4.64806,-2.68203 3.78341,-2.58618 3.78342,-2.58617 2.65269,-2.08343 2.65269,-2.08341 2.37685,-1.9191 2.37881,-1.9191 5.44819,-5.45404 5.44819,-5.45406 3.84796,-4.85152 3.846,-4.85155 1.28136,-1.86628 1.28134,-1.86432 1.52394,-2.18318 1.52197,-2.1832 v -0.1056 -0.10758 l 2.54509,-4.35071 2.54705,-4.34876 2.53141,-5.39342 2.5314,-5.39145 0.83924,-2.08343 0.83727,-2.08341 1.27744,-3.6856 1.27548,-3.68755 1.29114,-4.57569 1.29113,-4.5757 0.78446,-3.75798 0.7825,-3.75602 0.65731,-4.48765 0.6573,-4.48766 0.34039,-3.81275 0.34234,-3.81276 0.003,-6.99363 0.004,-6.99168 -0.34431,-4.25878 -0.34234,-4.25877 -0.49689,-3.52519 -0.49885,-3.52517 -1.08573,-5.28974 -1.08571,-5.28777 -0.93119,-3.20436 -0.93118,-3.2063 -0.87641,-2.72312 -0.8764,-2.72506 -2.39055,-5.92944 -2.39055,-5.92942 -2.49814,-4.80849 -2.49815,-4.80653 -1.57675,-2.56465 -1.57479,-2.56467 -0.95074,-1.56892 -0.95075,-1.57089 -2.57248,-3.55843 -2.57444,-3.55844 -2.43554,-3.04395 -2.43555,-3.04588 -3.48408,-3.713 -3.48411,-3.71493 -3.52714,-3.29239 -3.52518,-3.29434 -2.88353,-2.31427 -2.88548,-2.31424 -2.56466,-1.92889 -2.5627,-1.92886 -3.36673,-2.1832 -3.36476,-2.18317 -3.05373,-1.78999 -3.05177,-1.78997 -4.31941,-2.15581 -4.31943,-2.1558 -4.18641,-1.7352 -4.18638,-1.7352 -3.88319,-1.31264 -3.88318,-1.31069 -3.46845,-0.97815 -3.46843,-0.97617 -3.84602,-0.81577 -3.84602,-0.81574 -3.68755,-0.62993 -3.68559,-0.62991 -5.28776,-0.469499 -5.28778,-0.469508 -7.24795,-0.0063 z m 5.19976,22.375717 5.74943,0.21518 5.7475,0.2152 3.93013,0.45972 3.93208,0.45971 4.96303,0.97423 4.96304,0.97421 4.26856,1.26179 4.26661,1.25983 3.36673,1.25788 3.36476,1.25787 2.91482,1.29113 2.91483,1.29114 2.85419,1.43981 2.85418,1.43784 4.29987,2.60575 4.29985,2.60769 4.83393,3.65429 4.83586,3.65626 3.60344,3.30411 3.60538,3.30609 3.07134,3.36673 3.07329,3.36477 2.01494,2.56466 2.01691,2.56465 2.07754,2.89137 2.07951,2.89135 2.40816,3.99858 2.40815,4.00057 1.47307,2.93634 1.47306,2.93635 1.77433,4.16878 1.77433,4.1688 v 0.53797 0.53798 l -1.28331,1.45742 -1.28525,1.45741 -0.47929,1.61392 -0.47929,1.6139 v 1.03877 1.03879 l -0.88032,0.16628 -0.88227,0.16823 -2.72311,0.34038 -2.72507,0.33844 -7.85243,0.95466 -7.85244,0.95465 -15.70485,1.95236 -15.70486,1.95234 -6.08985,-0.14869 -6.08984,-0.15063 -3.36672,-0.80597 -3.36477,-0.80596 -2.40424,-0.86663 -2.40425,-0.86859 -5.12735,-2.57052 -5.12736,-2.57053 -2.15971,-0.73752 -2.15972,-0.73555 -3.265,-0.54579 -3.26499,-0.5458 -3.70908,0.18781 -3.71103,0.18976 -2.60573,0.6436 -2.60573,0.64165 -2.20276,0.87054 -2.20274,0.87249 -2.72312,1.53176 -2.72507,1.53174 -3.29238,1.31657 -3.2924,1.31657 -2.99504,0.76098 -2.99697,0.75902 -2.52555,0.32865 -2.52553,0.32865 -2.88548,0.13304 -2.88352,0.13302 -1.60219,-0.12911 -1.60412,-0.12716 -26.44083,-3.21219 -26.44278,-3.21022 -0.72185,-0.15258 -0.71991,-0.15063 v -1.21876 -1.21875 l -0.50667,-1.48284 -0.50472,-1.48089 -1.25787,-1.43002 -1.25787,-1.42807 v -0.53211 -0.53014 l 1.45937,-3.56236 1.45936,-3.56038 2.05408,-4.03186 2.05603,-4.03185 2.04429,-3.39412 2.0443,-3.39412 2.29273,-3.23369 2.29274,-3.2337 2.95201,-3.62887 2.95198,-3.62885 4.34094,-4.32727 4.34096,-4.3292 4.08075,-3.27282 4.08076,-3.27283 3.77166,-2.52162 3.77168,-2.52358 3.14763,-1.8467 3.14761,-1.84671 4.5444,-2.18318 4.54635,-2.18319 4.32725,-1.61001 4.32529,-1.61001 4.64807,-1.2696 4.64809,-1.27157 2.24382,-0.4969 2.24187,-0.49688 4.48767,-0.64557 4.48767,-0.64361 4.80848,-0.37365 z m 96.95617,88.78879 1.08575,0.20346 1.08571,0.20345 1.04855,0.71403 1.04855,0.71404 0.64166,0.86663 0.64361,0.86857 0.14672,1.76259 0.14476,1.76063 -0.20346,0.80989 -0.20343,0.80989 -1.03096,1.17573 -1.03291,1.17571 -1.03681,0.43234 -1.03486,0.43429 -1.3733,-0.0215 -1.37134,-0.0196 -0.80205,-0.31887 -0.80208,-0.31888 -0.90967,-0.86271 -0.90965,-0.86271 -0.4519,-0.86663 -0.45189,-0.86465 v -1.89171 -1.89171 l 0.72773,-1.0818 0.72968,-1.08182 1.07007,-0.71991 1.07008,-0.72187 1.08573,-0.20343 z m -187.89883,0.0725 1.07987,0.45384 1.08181,0.45386 0.84118,0.9077 0.84315,0.90771 0.31302,0.64165 0.31494,0.64165 0.20737,1.08377 0.2054,1.08573 -0.3306,1.22462 -0.32865,1.22266 -0.83337,0.98986 -0.83336,0.99183 -1.22854,0.62601 -1.22853,0.62796 -1.21483,-0.0294 -1.21484,-0.0294 -1.00357,-0.29149 -1.00357,-0.28952 -1.15223,-1.27548 -1.15224,-1.27549 -0.20736,-0.82358 -0.20542,-0.82359 0.14282,-1.72541 0.14281,-1.72543 0.89989,-1.17962 0.89986,-1.17963 1.31853,-0.59862 1.32048,-0.59861 1.162,-0.008 z m 163.85052,2.96764 1.20702,0.22498 1.20701,0.223 0.96053,0.50864 0.96248,0.50668 1.02703,1.07006 1.029,1.07008 0.49297,1.40264 0.49495,1.40067 v 0.96445 0.96443 l -0.37171,1.24027 -0.37167,1.24222 -1.13269,1.32243 -1.13267,1.32439 -1.30092,0.59079 -1.29895,0.5908 h -1.76259 -1.7626 l -1.3009,-0.5908 -1.29897,-0.59079 -1.14636,-1.34004 -1.14637,-1.33808 -0.40104,-1.43393 -0.40104,-1.43394 0.20346,-1.49067 0.2054,-1.49263 0.78056,-1.33221 0.78055,-1.33417 1.31264,-0.86857 1.3107,-0.86663 1.42807,-0.26606 z m -143.83798,0.39712 h 2.77203 2.77398 l 1.38112,0.9351 1.38111,0.93705 0.76492,1.30677 0.76685,1.30874 0.21322,1.33809 0.2152,1.34003 -0.40495,1.68825 -0.40495,1.6863 -1.51414,1.51415 -1.51415,1.51415 -1.24418,0.3443 -1.24223,0.34626 -1.2833,-0.0117 -1.28134,-0.0137 -1.23832,-0.44017 -1.23831,-0.44211 -0.95466,-0.90576 -0.95466,-0.9077 -0.67687,-1.28134 -0.67686,-1.28331 -0.0157,-1.93083 -0.0137,-1.93082 0.80012,-1.54937 0.80207,-1.54936 1.39284,-1.00552 z m 74.45529,1.38308 2.40424,0.50666 2.40425,0.50472 2.38078,1.1718 2.3788,1.1718 2.14211,2.14211 2.1421,2.14211 1.17376,2.3788 1.17375,2.38078 0.52429,2.56464 0.52623,2.56272 -0.34235,2.72507 -0.3443,2.72506 -0.67492,1.79585 -0.67491,1.79585 -1.02311,1.56893 -1.02509,1.56892 -1.83301,1.78802 -1.83301,1.78606 -1.86432,0.98792 -1.86432,0.98595 -1.75281,0.51449 -1.75281,0.51645 -2.57444,0.15063 -2.57444,0.1526 -2.08341,-0.46951 -2.08342,-0.46949 -2.38077,-1.17377 -2.37883,-1.17374 -2.14209,-2.14211 -2.1421,-2.1421 -1.1718,-2.37882 -1.1718,-2.38078 -0.50472,-2.40423 -0.50668,-2.40424 0.20149,-2.30448 0.20151,-2.30448 0.49884,-1.70195 0.5008,-1.70195 1.00357,-1.89365 1.00161,-1.89561 1.95625,-1.98366 1.95627,-1.9856 2.05798,-1.1405 2.05799,-1.14051 1.70195,-0.49688 1.70194,-0.49688 2.30447,-0.20151 z m -42.30609,1.66673 1.61392,0.75317 1.61392,0.7512 1.35763,1.54153 1.3557,1.53958 0.51253,1.76455 0.51255,1.76258 -0.20934,1.78608 -0.21126,1.78607 -0.89988,1.60607 -0.90184,1.60805 -1.5435,1.17767 -1.54347,1.17571 -1.37135,0.34626 -1.37132,0.3443 -1.38114,-0.0137 -1.37915,-0.0137 -1.16007,-0.41472 -1.16007,-0.41473 -1.13072,-0.69839 -1.12875,-0.69838 -0.85294,-1.11702 -0.85096,-1.11703 -0.5106,-1.20114 -0.51058,-1.20114 -0.0137,-2.24384 -0.0157,-2.24383 0.83337,-1.60218 0.83337,-1.60217 1.07007,-1.02508 1.07008,-1.02313 1.44372,-0.65144 1.44177,-0.65143 2.24383,-0.006 z m 81.73061,0.15454 h 2.88354 2.88547 l 1.48872,0.87641 1.48871,0.87446 0.8862,1.04855 0.88422,1.04659 0.63383,1.42807 0.63382,1.42612 0.0372,2.12058 0.0372,2.12058 -0.96834,1.89172 -0.9664,1.89366 -1.54741,1.16788 -1.54739,1.16984 -1.20897,0.36191 -1.20896,0.36191 -1.72544,-0.0254 -1.72541,-0.0254 -1.31853,-0.46756 -1.31851,-0.46755 -1.33809,-1.14441 -1.33807,-1.14636 -0.85098,-1.64718 -0.85097,-1.64522 0.0137,-2.40424 0.0137,-2.40423 0.52817,-1.18941 0.53016,-1.19138 1.00552,-1.1444 1.00551,-1.14637 1.47894,-0.86858 z m 64.36098,8.83644 0.27582,0.17214 0.27584,0.1702 0.43624,1.04269 0.43626,1.04268 1.06224,1.21092 1.06226,1.21093 1.70194,0.96053 1.70195,0.96052 v 2.16558 2.16755 l -0.32082,4.13162 -0.32084,4.13358 -0.67294,4.8085 -0.671,4.80653 -1.43199,5.72792 -1.43199,5.72794 -1.30482,3.72667 -1.30483,3.72863 -1.42415,3.3413 -1.42221,3.34128 -1.56501,3.11633 -1.56304,3.11633 -1.67065,2.83658 -1.66869,2.83852 -2.46685,3.68561 -2.46684,3.6856 -2.11472,2.68201 -2.11667,2.68009 -3.11047,3.49975 -3.1124,3.49975 -3.22979,2.98916 -3.23174,2.98722 -3.61517,2.89526 -3.61711,2.89527 -3.59563,2.38663 -3.59364,2.38664 -2.84049,1.66869 -2.83854,1.67065 -3.52909,1.77043 -3.52909,1.7704 -3.56822,1.46328 -3.56627,1.46329 -2.24383,0.77272 -2.24384,0.77272 -3.84599,1.08181 -3.84602,1.08182 -3.72472,0.82749 -3.72472,0.82555 h -0.60644 -0.60447 l -0.40104,-0.64166 -0.39909,-0.6397 -1.34003,-0.9703 -1.33808,-0.9703 -1.70391,-0.49494 -1.7039,-0.49493 v -0.31301 -0.31104 l 0.80012,-13.36713 0.80011,-13.36712 0.48123,-8.17326 0.48124,-8.17326 0.33452,-6.08984 0.33647,-6.08984 0.62797,-3.80493 0.62601,-3.80493 1.1307,-3.40584 1.13269,-3.40781 1.7215,-3.52518 1.7215,-3.52519 2.03453,-2.85809 2.03451,-2.85613 2.27904,-2.60575 2.27709,-2.60574 2.52944,-2.10493 2.52945,-2.10493 2.23012,-1.49067 2.2282,-1.49068 3.05958,-1.56304 3.05959,-1.56306 2.40426,-0.86272 2.40424,-0.86466 14.74238,-3.62495 14.74433,-3.6269 12.46921,-3.06742 z m -210.12391,0.13889 0.65535,0.0704 0.65535,0.0703 25.75025,6.28938 25.75222,6.28742 2.88549,0.95076 2.88352,0.94878 3.27477,1.5611 3.27675,1.5611 2.8131,1.93083 2.81506,1.93082 2.36903,2.01104 2.36903,2.01104 2.86593,3.37455 2.86787,3.37454 1.78997,2.88354 1.79194,2.88549 1.36546,2.88352 1.36548,2.88548 1.12681,3.73058 1.1268,3.73255 0.48906,3.48019 0.48712,3.48018 0.65731,11.37761 0.6573,11.37761 0.32081,5.45014 0.3228,5.4482 0.63187,10.56577 0.63381,10.56576 v 0.23866 0.23867 l -1.3635,0.35994 -1.36155,0.35997 -1.28136,0.74533 -1.2833,0.74729 -0.94096,0.98987 -0.94096,0.98986 -0.50082,-0.0215 -0.5008,-0.0196 -3.52714,-0.73359 -3.52517,-0.73359 -4.10619,-1.16792 -4.1062,-1.16592 -4.38788,-1.62176 -4.38594,-1.62173 -6.08983,-3.01655 -6.08985,-3.01656 -3.46845,-2.17535 -3.4665,-2.17343 -4.2842,-3.2063 -4.28422,-3.20436 -4.00642,-3.61909 -4.00838,-3.61908 -3.71298,-4.12575 -3.71102,-4.12379 -3.12024,-4.16683 -3.11828,-4.16684 -2.0658,-3.31391 -2.06582,-3.31391 -2.49424,-4.82805 -2.49226,-4.82804 -1.7313,-4.31355 -1.7313,-4.31552 -1.17376,-3.63277 -1.17571,-3.63474 -0.91747,-3.75602 -0.9175,-3.75602 -0.82357,-5.10193 -0.82359,-5.10193 -0.32474,-4.64807 -0.32669,-4.64807 -0.004,-2.13232 -0.003,-2.13233 1.68237,-0.95858 1.68238,-0.95855 0.86662,-0.91749 0.86857,-0.9175 0.77077,-1.4398 z m 104.36063,41.75051 1.7313,0.20347 1.73129,0.20344 1.54544,0.7825 1.54545,0.78447 1.14048,1.33221 1.14052,1.3322 0.49884,1.46133 0.49885,1.46328 v 1.64719 1.64912 l -0.49885,1.46132 -0.49884,1.46329 -1.11311,1.29896 -1.11116,1.30091 -1.67456,0.8138 -1.67455,0.81185 -1.76261,0.17606 -1.76258,0.17606 -1.65697,-0.59079 -1.65693,-0.59078 -1.16007,-0.88619 -1.16202,-0.88423 -0.75512,-1.17574 -0.75512,-1.17767 -0.3932,-1.24614 -0.39321,-1.2481 0.15454,-2.1734 0.1565,-2.17536 0.84316,-1.43786 0.84315,-1.4398 1.35567,-1.16007 1.3557,-1.16202 1.74499,-0.50666 z m -1.1405,29.56302 1.87997,0.008 1.87997,0.006 1.28134,0.59471 1.28331,0.5947 1.02703,1.08376 1.029,1.08182 0.49495,1.40068 0.49298,1.40069 v 1.04268 1.04073 l -0.49298,1.40069 -0.49495,1.40067 -1.029,1.08182 -1.02703,1.08377 -1.28331,0.59471 -1.28134,0.5947 h -1.7626 -1.76259 l -1.3009,-0.59081 -1.29896,-0.59078 -1.13269,-1.32243 -1.13268,-1.32438 -0.37168,-1.24027 -0.37168,-1.24224 v -0.92726 -0.92532 l 0.31299,-1.09159 0.313,-1.09158 0.82164,-1.18746 0.82163,-1.18549 1.55326,-0.84511 z m 2.97938,25.64071 1.18746,0.49688 1.18744,0.49688 0.75513,0.70426 0.75706,0.70622 0.47342,0.90966 0.47342,0.90966 v 1.70587 1.7078 l -0.47537,0.90967 -0.47538,0.90966 -0.90966,0.86075 -0.91162,0.86075 -0.90183,0.3404 -0.90184,0.34039 -1.34199,-0.0195 -1.34004,-0.0196 -0.80205,-0.31887 -0.80012,-0.31886 -0.91163,-0.86271 -0.90965,-0.86273 -0.4519,-0.86661 -0.45191,-0.86467 v -1.59826 -1.59827 l 0.34235,-0.90183 0.3404,-0.90186 0.70033,-0.76294 0.70035,-0.76489 1.28136,-0.59078 1.2833,-0.59081 1.05051,-0.008 z" /><path
       id="path123-0-0"
       style="display:inline;fill:#000000;fill-opacity:1;stroke:none;stroke-width:1.0016;stroke-opacity:1"
       d="m 248.39495,98.550604 -3.81194,0.339118 -3.8094,0.339127 -5.28828,0.805721 -5.28826,0.80828 -2.24382,0.48956 -2.24382,0.48957 -4.80636,1.2851 -4.80892,1.28765 -4.96955,1.77465 -4.96701,1.77467 -4.32699,1.90214 -4.327,1.90215 -3.91139,2.05259 -3.91139,2.05257 -3.97258,2.39427 -3.97258,2.39425 -2.53195,1.79505 -2.53193,1.79761 -2.83283,2.14948 -2.83283,2.15203 -0.72668,0.63999 -0.72924,0.63999 -2.91697,2.52175 -2.92207,2.51921 -3.93943,4.04907 -3.94198,4.05163 -2.39936,2.87616 -2.4019,2.87617 -1.76191,2.32031 -1.7619,2.32286 -2.33052,3.36063 -2.33307,3.36064 -2.75123,4.74261 -2.75377,4.74262 -2.22852,4.64828 -2.23108,4.64827 -1.23664,3.04446 -1.23411,3.04445 -1.30804,3.84764 -1.30804,3.84509 -0.30598,0.96128 -0.30342,0.96126 -0.96893,3.58248 -0.96637,3.58245 -0.6553,2.98836 -0.65529,2.98836 -0.61705,4.00827 -0.61705,4.00574 -0.16573,1.27999 -0.16829,1.28254 -0.34168,3.82724 -0.34167,3.82724 v 6.99664 6.99155 l 0.34167,4.2454 0.34168,4.24031 0.49466,3.52384 0.4972,3.5289 0.79809,4.00572 0.79809,4.00572 0.79298,3.1592 0.79298,3.16175 1.46869,4.53098 1.46868,4.53356 1.58852,4.00571 1.58853,4.00573 2.38916,4.88285 2.3866,4.88285 1.59617,2.76398 1.59617,2.76399 2.76143,4.21225 2.76142,4.21225 1.62423,2.0832 1.62677,2.08317 2.30247,2.88637 2.30245,2.88381 3.48048,3.70996 3.48303,3.70995 3.46771,3.25354 3.47027,3.25608 3.23568,2.62375 3.23825,2.62629 3.60286,2.58804 3.6003,2.59059 2.83538,1.79761 2.83282,1.79505 4.00827,2.23363 4.01084,2.23362 3.54167,1.62422 3.54166,1.62677 4.46723,1.75681 4.46724,1.75426 2.72574,0.88223 2.72573,0.87968 3.20254,0.93067 3.20509,0.93067 5.29082,1.08622 5.28828,1.08621 3.36317,0.48956 3.36829,0.48956 5.12508,0.34932 5.13019,0.34933 2.56255,0.0714 2.56508,0.0688 3.36574,-0.0765 3.36318,-0.0791 4.48763,-0.34421 4.48764,-0.34423 5.12763,-0.79554 5.1302,-0.79553 2.24382,-0.48956 2.24382,-0.48956 4.80636,-1.2851 4.8089,-1.2851 3.68446,-1.30295 3.68701,-1.30549 3.0725,-1.2086 3.06996,-1.2086 4.62277,-2.20813 4.61767,-2.20556 4.64829,-2.68239 4.64827,-2.68239 3.78389,-2.58548 3.7839,-2.58549 2.65178,-2.0832 2.65179,-2.08572 2.3764,-1.91745 2.37897,-1.92 5.44891,-5.454 5.44891,-5.45401 3.84764,-4.85227 3.84509,-4.84971 1.28254,-1.86644 1.28,-1.86391 1.52478,-2.18516 1.52223,-2.18263 v -0.10457 -0.10705 l 2.5447,-4.35249 2.54724,-4.34741 2.53194,-5.39281 2.53195,-5.39282 0.83888,-2.08318 0.83633,-2.08319 1.27745,-3.687 1.27491,-3.687 1.29273,-4.57434 1.2902,-4.57688 0.78534,-3.7584 0.78279,-3.75584 0.6553,-4.48764 0.65784,-4.48764 0.34167,-3.81194 0.34167,-3.81194 0.003,-6.99408 0.003,-6.99154 -0.34423,-4.26072 -0.34167,-4.25815 -0.49721,-3.52381 -0.49721,-3.52637 -1.08621,-5.28828 -1.08622,-5.28828 -0.93068,-3.20509 -0.93067,-3.20508 -0.87713,-2.72318 -0.87713,-2.72574 -2.38916,-5.93082 -2.3917,-5.92828 -2.4988,-4.8089 -2.49625,-4.80636 -1.57832,-2.56509 -1.57322,-2.5651 -0.95109,-1.56812 -0.95106,-1.57068 -2.57275,-3.55952 -2.57528,-3.55696 -2.43506,-3.04446 -2.43505,-3.04699 -3.48302,-3.7125 -3.48557,-3.71506 -3.52637,-3.29178 -3.52636,-3.29434 -2.88383,-2.31521 -2.88381,-2.31267 -2.5651,-1.93019 -2.56254,-1.92764 -3.36828,-2.18263 -3.36318,-2.18517 -3.05465,-1.78995 -3.0521,-1.78997 -4.31936,-2.15458 -4.31935,-2.15711 -4.18676,-1.73387 -4.18422,-1.73641 -3.88333,-1.31059 -3.88334,-1.31061 -3.47027,-0.97911 -3.46771,-0.97657 -3.84509,-0.81594 -3.84765,-0.81594 -3.687,-0.62979 -3.68446,-0.629801 -5.28826,-0.469149 -5.28829,-0.469168 -7.24651,-0.0081 z m 5.19902,22.374446 5.74979,0.21418 5.74724,0.21674 3.92923,0.45896 3.93179,0.45896 4.96445,0.97401 4.9619,0.97658 4.26835,1.25961 4.26836,1.26215 3.36573,1.25704 3.36572,1.25704 2.91443,1.29275 2.91441,1.2902 2.85321,1.44063 2.85577,1.43554 4.29896,2.6059 4.3015,2.60843 4.83187,3.65386 4.83696,3.6564 3.60286,3.30454 3.6054,3.3071 3.07252,3.36571 3.07249,3.36574 2.01434,2.56509 2.01689,2.56254 2.07808,2.89148 2.08064,2.89146 2.407,3.99807 2.40701,4.00063 1.47377,2.93737 1.47379,2.93736 1.77466,4.16891 1.77465,4.16891 v 0.53801 0.53801 l -1.28509,1.45593 -1.2851,1.45849 -0.47937,1.61402 -0.47935,1.61402 v 1.03776 0.6349 a 105.73236,105.73236 0 0 1 4.16382,22.92776 l 0.0131,0.008 0.43601,1.04032 0.43858,1.04286 1.06071,1.21115 1.06326,1.21116 1.70071,0.96128 1.70326,0.96126 v 2.16478 2.16732 l -0.32127,4.13068 -0.32128,4.13576 -0.67314,4.80636 -0.67059,4.80637 -1.43299,5.72938 -1.43043,5.72684 -1.3055,3.72781 -1.3055,3.72779 -1.42278,3.34278 -1.42279,3.34024 -1.56558,3.11584 -1.56301,3.11585 -1.67012,2.83792 -1.66757,2.83792 -2.46819,3.68701 -2.46566,3.68444 -2.11633,2.68239 -2.11633,2.67984 -3.11075,3.50087 -3.11074,3.49831 -3.23059,2.98837 -3.23315,2.98835 -3.61305,2.89403 -3.61816,2.89656 -3.59521,2.38661 -3.59521,2.38661 -2.84048,1.66756 -2.83792,1.67266 -3.52892,1.76956 -3.52891,1.76956 -3.56716,1.46358 -3.56716,1.46358 -2.24382,0.77259 -2.24381,0.77259 -3.84511,1.08111 -3.84763,1.08366 -3.72526,0.82613 -3.7227,0.82614 h -0.60684 -0.6043 l -0.40033,-0.64255 -0.40032,-0.64 -1.34118,-0.96891 -1.3361,-0.97148 -1.70581,-0.49466 -1.70326,-0.49467 v -0.31362 -0.31107 l 0.0254,-0.42072 a 105.73236,105.73236 0 0 1 -11.2395,0.80319 105.73236,105.73236 0 0 1 -11.25479,-0.80573 l 0.0357,0.59154 v 0.23713 0.23969 l -1.36414,0.35952 -1.36159,0.35952 -1.28255,0.74454 -1.28254,0.74964 -0.94088,0.98931 -0.94087,0.98933 -0.49976,-0.0229 -0.50232,-0.0179 -3.52636,-0.73434 -3.52636,-0.73434 -4.10517,-1.1678 -4.10516,-1.16526 -4.38821,-1.62168 -4.38565,-1.62166 -6.09145,-3.01641 -6.08892,-3.01641 -3.46772,-2.17498 -3.46772,-2.17496 -4.28366,-3.2051 -4.28365,-3.20509 -4.00828,-3.61816 -4.00827,-3.62071 -3.7125,-4.12557 -3.70996,-4.12301 -3.12094,-4.16637 -3.11839,-4.16636 -2.06535,-3.31474 -2.06533,-3.31474 -2.49625,-4.82675 -2.49114,-4.82931 -1.73131,-4.31171 -1.73131,-4.3168 -1.17291,-3.63345 -1.17546,-3.63346 -0.91793,-3.75586 -0.91792,-3.75584 -0.82359,-5.10213 -0.82357,-5.10215 -0.32384,-4.64827 -0.32891,-4.64827 -0.003,-2.13163 -0.003,-2.13164 1.68287,-0.95871 1.68032,-0.95872 0.86693,-0.91793 0.86947,-0.91794 0.77005,-1.44062 0.77258,-1.43808 0.0306,0.003 a 105.73236,105.73236 0 0 1 3.90374,-22.63198 v -0.87711 -1.21882 l -0.50486,-1.48397 -0.50486,-1.48143 -1.2596,-1.42788 -1.25706,-1.4279 v -0.5329 -0.53036 l 1.46103,-3.56206 1.45849,-3.56207 2.05259,-4.03123 2.05768,-4.03122 2.04494,-3.39378 2.04238,-3.39377 2.29226,-3.23569 2.29482,-3.23313 2.95012,-3.62836 2.95267,-3.62837 4.34228,-4.327 4.33976,-4.32955 4.08222,-3.27394 4.07967,-3.27138 3.77114,-2.52174 3.77115,-2.5243 3.149,-1.84606 3.14644,-1.84605 4.54629,-2.18517 4.54628,-2.18263 4.32701,-1.60891 4.32445,-1.61148 4.64827,-1.26978 4.64828,-1.26981 2.24382,-0.49721 2.24127,-0.49721 4.48764,-0.6451 4.48764,-0.64509 4.8089,-0.37228 z" /><g
       id="group-R5"
       transform="matrix(-0.01011805,0,0,-0.00521605,144.60139,451.17782)"><path
         id="path2-0"
         d="M 48036.4,400 H 400 V 29218.2 H 48036.4 V 400"
         style="fill:#ffffff;fill-opacity:1;fill-rule:nonzero;stroke:none"
         transform="matrix(0.13333333,0,0,-0.13333333,0,3949.0933)" /><path
         id="path4-1"
         d="m 3500.01,2872.7 h -909.09 v 23818.2 h 909.09 V 2872.7"
         style="fill:#211d1d;fill-opacity:1;fill-rule:nonzero;stroke:none"
         transform="matrix(0.13333333,0,0,-0.13333333,0,3949.0933)" /><path
         id="path5-7"
         d="m 2595.92,2877.7 h 899.09 v 23808.2 h -899.09 z m 909.09,-10 h -919.09 v 23828.2 h 919.09 V 2867.7"
         style="fill:#ffffff;fill-opacity:1;fill-rule:nonzero;stroke:none"
         transform="matrix(0.13333333,0,0,-0.13333333,0,3949.0933)" /><path
         id="path6-7"
         d="m 37153.8,2900 h -1818.2 v 23818.2 h 1818.2 V 2900"
         style="fill:#211d1d;fill-opacity:1;fill-rule:nonzero;stroke:none"
         transform="matrix(0.13333333,0,0,-0.13333333,0,3949.0933)" /><path
         id="path7"
         d="m 35340.6,2905 h 1808.2 v 23808.2 h -1808.2 z m 1818.2,-10 h -1828.2 v 23828.2 h 1828.2 V 2895"
         style="fill:#ffffff;fill-opacity:1;fill-rule:nonzero;stroke:none"
         transform="matrix(0.13333333,0,0,-0.13333333,0,3949.0933)" /><path
         id="path8-1"
         d="M 10581.8,2872.7 H 8397.28 V 26690.9 H 10581.8 V 2872.7"
         style="fill:#211d1d;fill-opacity:1;fill-rule:nonzero;stroke:none"
         transform="matrix(0.13333333,0,0,-0.13333333,0,3949.0933)" /><path
         id="path9-1"
         d="M 8402.28,2877.7 H 10576.8 V 26685.9 H 8402.28 Z m 2184.52,-10 H 8392.28 V 26695.9 H 10586.8 V 2867.7"
         style="fill:#ffffff;fill-opacity:1;fill-rule:nonzero;stroke:none"
         transform="matrix(0.13333333,0,0,-0.13333333,0,3949.0933)" /><path
         id="path10"
         d="M 4819.11,2872.7 H 4269.1 v 23818.2 h 550.01 V 2872.7"
         style="fill:#211d1d;fill-opacity:1;fill-rule:nonzero;stroke:none"
         transform="matrix(0.13333333,0,0,-0.13333333,0,3949.0933)" /><path
         id="path11"
         d="m 4274.1,2877.7 h 540.01 V 26685.9 H 4274.1 Z m 550.01,-10 H 4264.1 v 23828.2 h 560.01 V 2867.7"
         style="fill:#ffffff;fill-opacity:1;fill-rule:nonzero;stroke:none"
         transform="matrix(0.13333333,0,0,-0.13333333,0,3949.0933)" /><path
         id="path12"
         d="m 6470.92,2872.7 h -909.08 v 23818.2 h 909.08 V 2872.7"
         style="fill:#211d1d;fill-opacity:1;fill-rule:nonzero;stroke:none"
         transform="matrix(0.13333333,0,0,-0.13333333,0,3949.0933)" /><path
         id="path13"
         d="m 5566.84,2877.7 h 899.08 v 23808.2 h -899.08 z m 909.08,-10 h -919.08 v 23828.2 h 919.08 V 2867.7"
         style="fill:#ffffff;fill-opacity:1;fill-rule:nonzero;stroke:none"
         transform="matrix(0.13333333,0,0,-0.13333333,0,3949.0933)" /><path
         id="path14"
         d="m 11500,2872.7 h -457.3 V 26690.9 H 11500 V 2872.7"
         style="fill:#211d1d;fill-opacity:1;fill-rule:nonzero;stroke:none"
         transform="matrix(0.13333333,0,0,-0.13333333,0,3949.0933)" /><path
         id="path15"
         d="m 11047.7,2877.7 h 447.3 v 23808.2 h -447.3 z m 457.3,-10 h -467.3 V 26695.9 H 11505 V 2867.7"
         style="fill:#ffffff;fill-opacity:1;fill-rule:nonzero;stroke:none"
         transform="matrix(0.13333333,0,0,-0.13333333,0,3949.0933)" /><path
         id="path16"
         d="m 14611.7,2872.7 h -771.6 v 23818.2 h 771.6 V 2872.7"
         style="fill:#211d1d;fill-opacity:1;fill-rule:nonzero;stroke:none"
         transform="matrix(0.13333333,0,0,-0.13333333,0,3949.0933)" /><path
         id="path17"
         d="m 13845.1,2877.7 h 761.6 v 23808.2 h -761.6 z m 771.6,-10 h -781.6 v 23828.2 h 781.6 V 2867.7"
         style="fill:#ffffff;fill-opacity:1;fill-rule:nonzero;stroke:none"
         transform="matrix(0.13333333,0,0,-0.13333333,0,3949.0933)" /><path
         id="path18"
         d="m 16045.5,2872.7 h -771.7 v 23818.2 h 771.7 V 2872.7"
         style="fill:#211d1d;fill-opacity:1;fill-rule:nonzero;stroke:none"
         transform="matrix(0.13333333,0,0,-0.13333333,0,3949.0933)" /><path
         id="path19"
         d="m 15278.8,2877.7 h 761.7 v 23808.2 h -761.7 z m 771.7,-10 h -781.7 v 23828.2 h 781.7 V 2867.7"
         style="fill:#ffffff;fill-opacity:1;fill-rule:nonzero;stroke:none"
         transform="matrix(0.13333333,0,0,-0.13333333,0,3949.0933)" /><path
         id="path20"
         d="m 18681.8,2872.7 h -1818.1 v 23818.2 h 1818.1 V 2872.7"
         style="fill:#211d1d;fill-opacity:1;fill-rule:nonzero;stroke:none"
         transform="matrix(0.13333333,0,0,-0.13333333,0,3949.0933)" /><path
         id="path21"
         d="m 16868.7,2877.7 h 1808.1 v 23808.2 h -1808.1 z m 1818.1,-10 h -1828.1 v 23828.2 h 1828.1 V 2867.7"
         style="fill:#ffffff;fill-opacity:1;fill-rule:nonzero;stroke:none"
         transform="matrix(0.13333333,0,0,-0.13333333,0,3949.0933)" /><path
         id="path22"
         d="m 21227.3,2872.7 h -454.6 v 23818.2 h 454.6 V 2872.7"
         style="fill:#211d1d;fill-opacity:1;fill-rule:nonzero;stroke:none"
         transform="matrix(0.13333333,0,0,-0.13333333,0,3949.0933)" /><path
         id="path23"
         d="m 20777.7,2877.7 h 444.6 v 23808.2 h -444.6 z m 454.6,-10 h -464.6 v 23828.2 h 464.6 V 2867.7"
         style="fill:#ffffff;fill-opacity:1;fill-rule:nonzero;stroke:none"
         transform="matrix(0.13333333,0,0,-0.13333333,0,3949.0933)" /><path
         id="path24"
         d="m 22954.6,2872.7 h -1272.8 v 23818.2 h 1272.8 V 2872.7"
         style="fill:#211d1d;fill-opacity:1;fill-rule:nonzero;stroke:none"
         transform="matrix(0.13333333,0,0,-0.13333333,0,3949.0933)" /><path
         id="path25"
         d="m 21686.8,2877.7 h 1262.8 v 23808.2 h -1262.8 z m 1272.8,-10 h -1282.8 v 23828.2 h 1282.8 V 2867.7"
         style="fill:#ffffff;fill-opacity:1;fill-rule:nonzero;stroke:none"
         transform="matrix(0.13333333,0,0,-0.13333333,0,3949.0933)" /><path
         id="path26"
         d="m 23500,2872.7 v 0 23818.2 z"
         style="fill:#211d1d;fill-opacity:1;fill-rule:nonzero;stroke:none"
         transform="matrix(0.13333333,0,0,-0.13333333,0,3949.0933)" /><path
         id="path27"
         d="m 23505,2872.7 h -10 v 23818.2 h 10 V 2872.7"
         style="fill:#ffffff;fill-opacity:1;fill-rule:nonzero;stroke:none"
         transform="matrix(0.13333333,0,0,-0.13333333,0,3949.0933)" /><path
         id="path28"
         d="m 24681.8,2900 h -459.1 v 23818.2 h 459.1 V 2900"
         style="fill:#211d1d;fill-opacity:1;fill-rule:nonzero;stroke:none"
         transform="matrix(0.13333333,0,0,-0.13333333,0,3949.0933)" /><path
         id="path29"
         d="m 24227.7,2905 h 449.1 v 23808.2 h -449.1 z m 459.1,-10 h -469.1 v 23828.2 h 469.1 V 2895"
         style="fill:#ffffff;fill-opacity:1;fill-rule:nonzero;stroke:none"
         transform="matrix(0.13333333,0,0,-0.13333333,0,3949.0933)" /><path
         id="path30"
         d="m 26002.7,2872.7 h -909.1 v 23818.2 h 909.1 V 2872.7"
         style="fill:#211d1d;fill-opacity:1;fill-rule:nonzero;stroke:none"
         transform="matrix(0.13333333,0,0,-0.13333333,0,3949.0933)" /><path
         id="path31"
         d="m 25098.6,2877.7 h 899.1 v 23808.2 h -899.1 z m 909.1,-10 h -919.1 v 23828.2 h 919.1 V 2867.7"
         style="fill:#ffffff;fill-opacity:1;fill-rule:nonzero;stroke:none"
         transform="matrix(0.13333333,0,0,-0.13333333,0,3949.0933)" /><path
         id="path32"
         d="m 27924.9,2872.7 h -909.1 v 23818.2 h 909.1 V 2872.7"
         style="fill:#211d1d;fill-opacity:1;fill-rule:nonzero;stroke:none"
         transform="matrix(0.13333333,0,0,-0.13333333,0,3949.0933)" /><path
         id="path33"
         d="m 27020.8,2877.7 h 899.1 v 23808.2 h -899.1 z m 909.1,-10 h -919.1 v 23828.2 h 919.1 V 2867.7"
         style="fill:#ffffff;fill-opacity:1;fill-rule:nonzero;stroke:none"
         transform="matrix(0.13333333,0,0,-0.13333333,0,3949.0933)" /><path
         id="path34"
         d="m 29787.3,2900 h -909.1 v 23818.2 h 909.1 V 2900"
         style="fill:#211d1d;fill-opacity:1;fill-rule:nonzero;stroke:none"
         transform="matrix(0.13333333,0,0,-0.13333333,0,3949.0933)" /><path
         id="path35"
         d="m 28883.2,2905 h 899.1 v 23808.2 h -899.1 z m 909.1,-10 h -919.1 v 23828.2 h 919.1 V 2895"
         style="fill:#ffffff;fill-opacity:1;fill-rule:nonzero;stroke:none"
         transform="matrix(0.13333333,0,0,-0.13333333,0,3949.0933)" /><path
         id="path36"
         d="m 33014.6,2872.7 h -610.3 v 23818.2 h 610.3 V 2872.7"
         style="fill:#211d1d;fill-opacity:1;fill-rule:nonzero;stroke:none"
         transform="matrix(0.13333333,0,0,-0.13333333,0,3949.0933)" /><path
         id="path37"
         d="m 32409.3,2877.7 h 600.3 v 23808.2 h -600.3 z m 610.3,-10 h -620.3 v 23828.2 h 620.3 V 2867.7"
         style="fill:#ffffff;fill-opacity:1;fill-rule:nonzero;stroke:none"
         transform="matrix(0.13333333,0,0,-0.13333333,0,3949.0933)" /><path
         id="path38"
         d="m 38293.5,2900 h -438.4 v 23818.2 h 438.4 V 2900"
         style="fill:#211d1d;fill-opacity:1;fill-rule:nonzero;stroke:none"
         transform="matrix(0.13333333,0,0,-0.13333333,0,3949.0933)" /><path
         id="path39"
         d="m 37860.1,2905 h 428.4 v 23808.2 h -428.4 z m 438.4,-10 h -448.4 v 23828.2 h 448.4 V 2895"
         style="fill:#ffffff;fill-opacity:1;fill-rule:nonzero;stroke:none"
         transform="matrix(0.13333333,0,0,-0.13333333,0,3949.0933)" /><path
         id="path40"
         d="m 40333.1,2872.7 h -489.9 v 23818.2 h 489.9 V 2872.7"
         style="fill:#211d1d;fill-opacity:1;fill-rule:nonzero;stroke:none"
         transform="matrix(0.13333333,0,0,-0.13333333,0,3949.0933)" /><path
         id="path41"
         d="m 39848.2,2877.7 h 479.9 v 23808.2 h -479.9 z m 489.9,-10 h -499.9 v 23828.2 h 499.9 V 2867.7"
         style="fill:#ffffff;fill-opacity:1;fill-rule:nonzero;stroke:none"
         transform="matrix(0.13333333,0,0,-0.13333333,0,3949.0933)" /><path
         id="path42"
         d="M 42631.2,2872.7 H 40813 v 23818.2 h 1818.2 V 2872.7"
         style="fill:#211d1d;fill-opacity:1;fill-rule:nonzero;stroke:none"
         transform="matrix(0.13333333,0,0,-0.13333333,0,3949.0933)" /><path
         id="path43"
         d="m 40818,2877.7 h 1808.2 V 26685.9 H 40818 Z m 1818.2,-10 H 40808 v 23828.2 h 1828.2 V 2867.7"
         style="fill:#ffffff;fill-opacity:1;fill-rule:nonzero;stroke:none"
         transform="matrix(0.13333333,0,0,-0.13333333,0,3949.0933)" /><path
         id="path44"
         d="m 45510.6,2872.7 h -1818.1 v 23818.2 h 1818.1 V 2872.7"
         style="fill:#211d1d;fill-opacity:1;fill-rule:nonzero;stroke:none"
         transform="matrix(0.13333333,0,0,-0.13333333,0,3949.0933)" /><path
         id="path45"
         d="m 43697.5,2877.7 h 1808.1 v 23808.2 h -1808.1 z m 1818.1,-10 h -1828.1 v 23828.2 h 1828.1 V 2867.7"
         style="fill:#ffffff;fill-opacity:1;fill-rule:nonzero;stroke:none"
         transform="matrix(0.13333333,0,0,-0.13333333,0,3949.0933)" /></g></g></svg>
